# xmcd CD database file
#
# Track frame offsets:
#	150
#	13505
#	29005
#	40300
#	56472
#	68987
#	80100
#	92875
#	103442
#	119032
#	133497
#
# Disc length: 1878 seconds
#
# Revision: 4
# Processed by: cddbd v1.5.2PL0 Copyright (c) Steve Scherf et al.
# Submitted via: CDex 1.79
#
DISCID=aa07540b
DTITLE=Collin Raye - Counting Sheep
DYEAR=2000
DGENRE=Country
TTITLE0=Counting Sheep
TTITLE1=I'm Gonna Love You
TTITLE2=Blackbird
TTITLE3=A Mother And Father's Prayer (featuring Melissa Manchester)
TTITLE4=When You Wish Upon A Star
TTITLE5=Cool Cat
TTITLE6=Too Ra Loo Ra Loo Ral (An Irish Lullaby)
TTITLE7=Hearts Are For When You Want To Love Someone
TTITLE8=The Dream Song
TTITLE9=When You Say Your Prayers
TTITLE10=Stay Awake
EXTD=YEAR: 2000
EXTT0=
EXTT1=
EXTT2=
EXTT3=
EXTT4=
EXTT5=
EXTT6=
EXTT7=
EXTT8=
EXTT9=
EXTT10=
PLAYORDER=
